# xmcd
#
# Track frame offsets: 
#        150
#        12577
#        25116
#        47949
#        57707
#        97107
#        109536
#        123948
#        135424
#        142079
#        150197
#        162289
#        181594
#        198899
#        219916
#        248958
#        263492
#        277872
#
# Disc length: 3956 seconds
#
# Revision: 0
# Processed by: cddbd v1.5.1PL0 Copyright (c) Steve Scherf et al.
# Submitted via: ExactAudioCopy v0.95a5
#
DISCID=f00f7212
DTITLE=Black Bottom Skiffle Group - Live in der JVA Aichach
DYEAR=2002
DGENRE=Easy Listening
TTITLE0=I und der Niedermeier
TTITLE1=I've been walking
TTITLE2=Kansas City, Oh boy
TTITLE3=Sea cruise
TTITLE4=Vorstellung der Band, Hosd du des g'seh'n
TTITLE5=Jack O'Diamond
TTITLE6=The last thing on my mind
TTITLE7=Last time
TTITLE8=Get back
TTITLE9=I'm walkin'
TTITLE10=Bye, bye love
TTITLE11=Dei erster Briaf
TTITLE12=Folsom prison blues
TTITLE13=Country roads
TTITLE14=Duellin' banjo, Rancho grande, Adelita
TTITLE15=Will the circle be unbroken
TTITLE16=Route 66
TTITLE17=I wanna go home
EXTD=
EXTT0=
EXTT1=
EXTT2=
EXTT3=
EXTT4=
EXTT5=
EXTT6=
EXTT7=
EXTT8=
EXTT9=
EXTT10=
EXTT11=
EXTT12=
EXTT13=
EXTT14=
EXTT15=
EXTT16=
EXTT17=
PLAYORDER=
